<?xml version="1.0" encoding="utf-8" standalone="no"?>
<!DOCTYPE svg PUBLIC "-//W3C//DTD SVG 1.1//EN"
  "http://www.w3.org/Graphics/SVG/1.1/DTD/svg11.dtd">
<svg xmlns:xlink="http://www.w3.org/1999/xlink" width="576pt" height="432pt" viewBox="0 0 576 432" xmlns="http://www.w3.org/2000/svg" version="1.1">
 <metadata>
  <rdf:RDF xmlns:dc="http://purl.org/dc/elements/1.1/" xmlns:cc="http://creativecommons.org/ns#" xmlns:rdf="http://www.w3.org/1999/02/22-rdf-syntax-ns#">
   <cc:Work>
    <dc:type rdf:resource="http://purl.org/dc/dcmitype/StillImage"/>
    <dc:date>2026-01-24T23:19:43.616070</dc:date>
    <dc:format>image/svg+xml</dc:format>
    <dc:creator>
     <cc:Agent>
      <dc:title>Matplotlib v3.10.8, https://matplotlib.org/</dc:title>
     </cc:Agent>
    </dc:creator>
   </cc:Work>
  </rdf:RDF>
 </metadata>
 <defs>
  <style type="text/css">*{stroke-linejoin: round; stroke-linecap: butt}</style>
 </defs>
 <g id="figure_1">
  <g id="patch_1">
   <path d="M 0 432 
L 576 432 
L 576 0 
L 0 0 
z
" style="fill: #ffffff"/>
  </g>
  <g id="axes_1">
   <g id="patch_2">
    <path d="M 185.2 388.3 
L 565.2 388.3 
L 565.2 26.4 
L 185.2 26.4 
z
" style="fill: #ffffff"/>
   </g>
   <g id="patch_3">
    <path d="M 466.625183 371.85 
L 202.472727 371.85 
L 202.472727 358.557071 
L 466.625183 358.557071 
z
" clip-path="url(#p88bc8a5369)" style="fill: #808080"/>
   </g>
   <g id="patch_4">
    <path d="M 466.625183 355.233838 
L 262.350883 355.233838 
L 262.350883 341.940909 
L 466.625183 341.940909 
z
" clip-path="url(#p88bc8a5369)" style="fill: #808080"/>
   </g>
   <g id="patch_5">
    <path d="M 466.625183 338.617677 
L 281.208721 338.617677 
L 281.208721 325.324747 
L 466.625183 325.324747 
z
" clip-path="url(#p88bc8a5369)" style="fill: #808080"/>
   </g>
   <g id="patch_6">
    <path d="M 466.625183 322.001515 
L 329.852489 322.001515 
L 329.852489 308.708586 
L 466.625183 308.708586 
z
" clip-path="url(#p88bc8a5369)" style="fill: #808080"/>
   </g>
   <g id="patch_7">
    <path d="M 466.625183 305.385354 
L 337.288646 305.385354 
L 337.288646 292.092424 
L 466.625183 292.092424 
z
" clip-path="url(#p88bc8a5369)" style="fill: #808080"/>
   </g>
   <g id="patch_8">
    <path d="M 466.625183 288.769192 
L 376.52476 288.769192 
L 376.52476 275.476263 
L 466.625183 275.476263 
z
" clip-path="url(#p88bc8a5369)" style="fill: #808080"/>
   </g>
   <g id="patch_9">
    <path d="M 466.625183 272.15303 
L 391.324691 272.15303 
L 391.324691 258.860101 
L 466.625183 258.860101 
z
" clip-path="url(#p88bc8a5369)" style="fill: #808080"/>
   </g>
   <g id="patch_10">
    <path d="M 466.625183 255.536869 
L 408.879239 255.536869 
L 408.879239 242.243939 
L 466.625183 242.243939 
z
" clip-path="url(#p88bc8a5369)" style="fill: #808080"/>
   </g>
   <g id="patch_11">
    <path d="M 466.625183 238.920707 
L 421.630383 238.920707 
L 421.630383 225.627778 
L 466.625183 225.627778 
z
" clip-path="url(#p88bc8a5369)" style="fill: #808080"/>
   </g>
   <g id="patch_12">
    <path d="M 466.625183 222.304545 
L 426.053064 222.304545 
L 426.053064 209.011616 
L 466.625183 209.011616 
z
" clip-path="url(#p88bc8a5369)" style="fill: #808080"/>
   </g>
   <g id="patch_13">
    <path d="M 466.625183 205.688384 
L 435.999292 205.688384 
L 435.999292 192.395455 
L 466.625183 192.395455 
z
" clip-path="url(#p88bc8a5369)" style="fill: #808080"/>
   </g>
   <g id="patch_14">
    <path d="M 466.625183 189.072222 
L 443.409685 189.072222 
L 443.409685 175.779293 
L 466.625183 175.779293 
z
" clip-path="url(#p88bc8a5369)" style="fill: #808080"/>
   </g>
   <g id="patch_15">
    <path d="M 466.625183 172.456061 
L 461.895798 172.456061 
L 461.895798 159.163131 
L 466.625183 159.163131 
z
" clip-path="url(#p88bc8a5369)" style="fill: #808080"/>
   </g>
   <g id="patch_16">
    <path d="M 466.625183 155.839899 
L 480.909442 155.839899 
L 480.909442 142.54697 
L 466.625183 142.54697 
z
" clip-path="url(#p88bc8a5369)" style="fill: #808080"/>
   </g>
   <g id="patch_17">
    <path d="M 466.625183 139.223737 
L 504.241079 139.223737 
L 504.241079 125.930808 
L 466.625183 125.930808 
z
" clip-path="url(#p88bc8a5369)" style="fill: #808080"/>
   </g>
   <g id="patch_18">
    <path d="M 466.625183 122.607576 
L 516.347734 122.607576 
L 516.347734 109.314646 
L 466.625183 109.314646 
z
" clip-path="url(#p88bc8a5369)" style="fill: #808080"/>
   </g>
   <g id="patch_19">
    <path d="M 466.625183 105.991414 
L 526.383928 105.991414 
L 526.383928 92.698485 
L 466.625183 92.698485 
z
" clip-path="url(#p88bc8a5369)" style="fill: #808080"/>
   </g>
   <g id="patch_20">
    <path d="M 466.625183 89.375253 
L 531.23845 89.375253 
L 531.23845 76.082323 
L 466.625183 76.082323 
z
" clip-path="url(#p88bc8a5369)" style="fill: #808080"/>
   </g>
   <g id="patch_21">
    <path d="M 466.625183 72.759091 
L 533.824583 72.759091 
L 533.824583 59.466162 
L 466.625183 59.466162 
z
" clip-path="url(#p88bc8a5369)" style="fill: #808080"/>
   </g>
   <g id="patch_22">
    <path d="M 466.625183 56.142929 
L 547.927273 56.142929 
L 547.927273 42.85 
L 466.625183 42.85 
z
" clip-path="url(#p88bc8a5369)" style="fill: #808080"/>
   </g>
   <g id="matplotlib.axis_1">
    <g id="xtick_1">
     <g id="line2d_1">
      <defs>
       <path id="m883357de8f" d="M 0 0 
L 0 3.5 
" style="stroke: #000000; stroke-width: 0.8"/>
      </defs>
      <g>
       <use xlink:href="#m883357de8f" x="200.749047" y="388.3" style="stroke: #000000; stroke-width: 0.8"/>
      </g>
     </g>
     <g id="text_1">
      <!-- −80 -->
      <g transform="translate(190.196703 402.898438) scale(0.1 -0.1)">
       <defs>
        <path id="DejaVuSans-2212" d="M 678 2272 
L 4684 2272 
L 4684 1741 
L 678 1741 
L 678 2272 
z
" transform="scale(0.015625)"/>
        <path id="DejaVuSans-38" d="M 2034 2216 
Q 1584 2216 1326 1975 
Q 1069 1734 1069 1313 
Q 1069 891 1326 650 
Q 1584 409 2034 409 
Q 2484 409 2743 651 
Q 3003 894 3003 1313 
Q 3003 1734 2745 1975 
Q 2488 2216 2034 2216 
z
M 1403 2484 
Q 997 2584 770 2862 
Q 544 3141 544 3541 
Q 544 4100 942 4425 
Q 1341 4750 2034 4750 
Q 2731 4750 3128 4425 
Q 3525 4100 3525 3541 
Q 3525 3141 3298 2862 
Q 3072 2584 2669 2484 
Q 3125 2378 3379 2068 
Q 3634 1759 3634 1313 
Q 3634 634 3220 271 
Q 2806 -91 2034 -91 
Q 1263 -91 848 271 
Q 434 634 434 1313 
Q 434 1759 690 2068 
Q 947 2378 1403 2484 
z
M 1172 3481 
Q 1172 3119 1398 2916 
Q 1625 2713 2034 2713 
Q 2441 2713 2670 2916 
Q 2900 3119 2900 3481 
Q 2900 3844 2670 4047 
Q 2441 4250 2034 4250 
Q 1625 4250 1398 4047 
Q 1172 3844 1172 3481 
z
" transform="scale(0.015625)"/>
        <path id="DejaVuSans-30" d="M 2034 4250 
Q 1547 4250 1301 3770 
Q 1056 3291 1056 2328 
Q 1056 1369 1301 889 
Q 1547 409 2034 409 
Q 2525 409 2770 889 
Q 3016 1369 3016 2328 
Q 3016 3291 2770 3770 
Q 2525 4250 2034 4250 
z
M 2034 4750 
Q 2819 4750 3233 4129 
Q 3647 3509 3647 2328 
Q 3647 1150 3233 529 
Q 2819 -91 2034 -91 
Q 1250 -91 836 529 
Q 422 1150 422 2328 
Q 422 3509 836 4129 
Q 1250 4750 2034 4750 
z
" transform="scale(0.015625)"/>
       </defs>
       <use xlink:href="#DejaVuSans-2212"/>
       <use xlink:href="#DejaVuSans-38" transform="translate(83.789062 0)"/>
       <use xlink:href="#DejaVuSans-30" transform="translate(147.412109 0)"/>
      </g>
     </g>
    </g>
    <g id="xtick_2">
     <g id="line2d_2">
      <g>
       <use xlink:href="#m883357de8f" x="267.218081" y="388.3" style="stroke: #000000; stroke-width: 0.8"/>
      </g>
     </g>
     <g id="text_2">
      <!-- −60 -->
      <g transform="translate(256.665737 402.898438) scale(0.1 -0.1)">
       <defs>
        <path id="DejaVuSans-36" d="M 2113 2584 
Q 1688 2584 1439 2293 
Q 1191 2003 1191 1497 
Q 1191 994 1439 701 
Q 1688 409 2113 409 
Q 2538 409 2786 701 
Q 3034 994 3034 1497 
Q 3034 2003 2786 2293 
Q 2538 2584 2113 2584 
z
M 3366 4563 
L 3366 3988 
Q 3128 4100 2886 4159 
Q 2644 4219 2406 4219 
Q 1781 4219 1451 3797 
Q 1122 3375 1075 2522 
Q 1259 2794 1537 2939 
Q 1816 3084 2150 3084 
Q 2853 3084 3261 2657 
Q 3669 2231 3669 1497 
Q 3669 778 3244 343 
Q 2819 -91 2113 -91 
Q 1303 -91 875 529 
Q 447 1150 447 2328 
Q 447 3434 972 4092 
Q 1497 4750 2381 4750 
Q 2619 4750 2861 4703 
Q 3103 4656 3366 4563 
z
" transform="scale(0.015625)"/>
       </defs>
       <use xlink:href="#DejaVuSans-2212"/>
       <use xlink:href="#DejaVuSans-36" transform="translate(83.789062 0)"/>
       <use xlink:href="#DejaVuSans-30" transform="translate(147.412109 0)"/>
      </g>
     </g>
    </g>
    <g id="xtick_3">
     <g id="line2d_3">
      <g>
       <use xlink:href="#m883357de8f" x="333.687115" y="388.3" style="stroke: #000000; stroke-width: 0.8"/>
      </g>
     </g>
     <g id="text_3">
      <!-- −40 -->
      <g transform="translate(323.134771 402.898438) scale(0.1 -0.1)">
       <defs>
        <path id="DejaVuSans-34" d="M 2419 4116 
L 825 1625 
L 2419 1625 
L 2419 4116 
z
M 2253 4666 
L 3047 4666 
L 3047 1625 
L 3713 1625 
L 3713 1100 
L 3047 1100 
L 3047 0 
L 2419 0 
L 2419 1100 
L 313 1100 
L 313 1709 
L 2253 4666 
z
" transform="scale(0.015625)"/>
       </defs>
       <use xlink:href="#DejaVuSans-2212"/>
       <use xlink:href="#DejaVuSans-34" transform="translate(83.789062 0)"/>
       <use xlink:href="#DejaVuSans-30" transform="translate(147.412109 0)"/>
      </g>
     </g>
    </g>
    <g id="xtick_4">
     <g id="line2d_4">
      <g>
       <use xlink:href="#m883357de8f" x="400.156149" y="388.3" style="stroke: #000000; stroke-width: 0.8"/>
      </g>
     </g>
     <g id="text_4">
      <!-- −20 -->
      <g transform="translate(389.603806 402.898438) scale(0.1 -0.1)">
       <defs>
        <path id="DejaVuSans-32" d="M 1228 531 
L 3431 531 
L 3431 0 
L 469 0 
L 469 531 
Q 828 903 1448 1529 
Q 2069 2156 2228 2338 
Q 2531 2678 2651 2914 
Q 2772 3150 2772 3378 
Q 2772 3750 2511 3984 
Q 2250 4219 1831 4219 
Q 1534 4219 1204 4116 
Q 875 4013 500 3803 
L 500 4441 
Q 881 4594 1212 4672 
Q 1544 4750 1819 4750 
Q 2544 4750 2975 4387 
Q 3406 4025 3406 3419 
Q 3406 3131 3298 2873 
Q 3191 2616 2906 2266 
Q 2828 2175 2409 1742 
Q 1991 1309 1228 531 
z
" transform="scale(0.015625)"/>
       </defs>
       <use xlink:href="#DejaVuSans-2212"/>
       <use xlink:href="#DejaVuSans-32" transform="translate(83.789062 0)"/>
       <use xlink:href="#DejaVuSans-30" transform="translate(147.412109 0)"/>
      </g>
     </g>
    </g>
    <g id="xtick_5">
     <g id="line2d_5">
      <g>
       <use xlink:href="#m883357de8f" x="466.625183" y="388.3" style="stroke: #000000; stroke-width: 0.8"/>
      </g>
     </g>
     <g id="text_5">
      <!-- 0 -->
      <g transform="translate(463.443933 402.898438) scale(0.1 -0.1)">
       <use xlink:href="#DejaVuSans-30"/>
      </g>
     </g>
    </g>
    <g id="xtick_6">
     <g id="line2d_6">
      <g>
       <use xlink:href="#m883357de8f" x="533.094217" y="388.3" style="stroke: #000000; stroke-width: 0.8"/>
      </g>
     </g>
     <g id="text_6">
      <!-- 20 -->
      <g transform="translate(526.731717 402.898438) scale(0.1 -0.1)">
       <use xlink:href="#DejaVuSans-32"/>
       <use xlink:href="#DejaVuSans-30" transform="translate(63.623047 0)"/>
      </g>
     </g>
    </g>
    <g id="text_7">
     <!-- Μέση ετήσια μεταβολή (άτομα / έτος) -->
     <g transform="translate(279.159375 416.976562) scale(0.1 -0.1)">
      <defs>
       <path id="DejaVuSans-39c" d="M 628 4666 
L 1569 4666 
L 2759 1491 
L 3956 4666 
L 4897 4666 
L 4897 0 
L 4281 0 
L 4281 4097 
L 3078 897 
L 2444 897 
L 1241 4097 
L 1241 0 
L 628 0 
L 628 4666 
z
" transform="scale(0.015625)"/>
       <path id="DejaVuSans-3ad" d="M 2282 5119 
L 2904 5119 
L 1886 3944 
L 1407 3944 
L 2282 5119 
z
M 1234 1888 
Q 884 1963 697 2166 
Q 509 2366 509 2656 
Q 509 3097 866 3344 
Q 1219 3588 1831 3588 
Q 2069 3588 2334 3550 
Q 2600 3513 2906 3438 
L 2906 2916 
Q 2603 3006 2353 3047 
Q 2100 3088 1878 3088 
Q 1506 3088 1291 2944 
Q 1072 2800 1072 2600 
Q 1072 2381 1284 2241 
Q 1494 2103 1856 2103 
L 2341 2103 
L 2341 1628 
L 1878 1628 
Q 1450 1628 1225 1469 
Q 981 1294 981 1019 
Q 981 738 1244 563 
Q 1509 388 1981 388 
Q 2272 388 2538 444 
Q 2803 503 3025 619 
L 3025 84 
Q 2744 -3 2481 -47 
Q 2216 -91 1966 -91 
Q 1222 -91 819 194 
Q 416 478 416 1019 
Q 416 1356 631 1584 
Q 847 1813 1234 1888 
z
" transform="scale(0.015625)"/>
       <path id="DejaVuSans-3c3" d="M 1959 3044 
Q 1484 3044 1228 2700 
Q 959 2341 959 1747 
Q 959 1119 1226 758 
Q 1494 397 1959 397 
Q 2419 397 2687 759 
Q 2956 1122 2956 1747 
Q 2956 2319 2688 2700 
Q 2441 3044 1959 3044 
z
M 1959 3500 
L 3869 3500 
L 3869 2925 
L 3225 2925 
Q 3566 2438 3566 1747 
Q 3566 888 3138 400 
Q 2709 -91 1959 -91 
Q 1206 -91 781 400 
Q 353 888 353 1747 
Q 353 2613 781 3097 
Q 1134 3500 1959 3500 
z
" transform="scale(0.015625)"/>
       <path id="DejaVuSans-3b7" d="M 3513 2113 
L 3513 -1331 
L 2938 -1331 
L 2938 2094 
Q 2938 2591 2744 2837 
Q 2550 3084 2163 3084 
Q 1697 3084 1428 2787 
Q 1159 2491 1159 1978 
L 1159 0 
L 581 0 
L 581 3500 
L 1159 3500 
L 1159 2956 
Q 1366 3272 1644 3428 
Q 1925 3584 2291 3584 
Q 2894 3584 3203 3213 
Q 3513 2838 3513 2113 
z
" transform="scale(0.015625)"/>
       <path id="DejaVuSans-20" transform="scale(0.015625)"/>
       <path id="DejaVuSans-3b5" d="M 1234 1888 
Q 884 1963 697 2166 
Q 509 2366 509 2656 
Q 509 3097 866 3344 
Q 1219 3588 1831 3588 
Q 2069 3588 2334 3550 
Q 2600 3513 2906 3438 
L 2906 2916 
Q 2603 3006 2353 3047 
Q 2100 3088 1878 3088 
Q 1506 3088 1291 2944 
Q 1072 2800 1072 2600 
Q 1072 2381 1284 2241 
Q 1494 2103 1856 2103 
L 2341 2103 
L 2341 1628 
L 1878 1628 
Q 1450 1628 1225 1469 
Q 981 1294 981 1019 
Q 981 738 1244 563 
Q 1509 388 1981 388 
Q 2272 388 2538 444 
Q 2803 503 3025 619 
L 3025 84 
Q 2744 -3 2481 -47 
Q 2216 -91 1966 -91 
Q 1222 -91 819 194 
Q 416 478 416 1019 
Q 416 1356 631 1584 
Q 847 1813 1234 1888 
z
" transform="scale(0.015625)"/>
       <path id="DejaVuSans-3c4" d="M 2319 638 
Q 2431 488 2769 488 
L 3047 488 
L 3047 0 
L 2700 0 
Q 2138 0 1881 300 
Q 1625 606 1625 1269 
L 1625 2925 
L 313 2925 
L 313 3500 
L 3541 3500 
L 3541 2925 
L 2213 2925 
L 2213 1234 
Q 2213 781 2319 638 
z
" transform="scale(0.015625)"/>
       <path id="DejaVuSans-3ae" d="M 2650 5119 
L 3272 5119 
L 2254 3944 
L 1775 3944 
L 2650 5119 
z
M 3513 2113 
L 3513 -1331 
L 2938 -1331 
L 2938 2094 
Q 2938 2591 2744 2837 
Q 2550 3084 2163 3084 
Q 1697 3084 1428 2787 
Q 1159 2491 1159 1978 
L 1159 0 
L 581 0 
L 581 3500 
L 1159 3500 
L 1159 2956 
Q 1366 3272 1644 3428 
Q 1925 3584 2291 3584 
Q 2894 3584 3203 3213 
Q 3513 2838 3513 2113 
z
" transform="scale(0.015625)"/>
       <path id="DejaVuSans-3b9" d="M 1109 3500 
L 1109 1234 
Q 1109 781 1216 638 
Q 1328 488 1666 488 
L 1944 488 
L 1944 0 
L 1597 0 
Q 1034 0 778 300 
Q 522 606 522 1269 
L 519 3500 
L 1109 3500 
z
" transform="scale(0.015625)"/>
       <path id="DejaVuSans-3b1" d="M 2644 1628 
L 2506 2350 
Q 2366 3091 1809 3091 
Q 1391 3091 1200 2747 
Q 959 2316 959 1747 
Q 959 1059 1194 731 
Q 1431 397 1809 397 
Q 2228 397 2453 1063 
L 2644 1628 
z
M 2966 2584 
L 3275 3500 
L 3788 3500 
L 3147 1603 
L 3272 919 
Q 3300 766 3409 638 
Q 3538 488 3638 488 
L 3913 488 
L 3913 0 
L 3569 0 
Q 3275 0 3013 263 
Q 2884 394 2831 669 
Q 2688 322 2394 50 
Q 2256 -78 1809 -78 
Q 1075 -78 719 397 
Q 353 888 353 1747 
Q 353 2666 750 3097 
Q 1191 3578 1809 3578 
Q 2781 3578 2966 2584 
z
" transform="scale(0.015625)"/>
       <path id="DejaVuSans-3bc" d="M 544 -1331 
L 544 3500 
L 1119 3500 
L 1119 1325 
Q 1119 872 1334 640 
Q 1550 409 1972 409 
Q 2434 409 2667 671 
Q 2900 934 2900 1459 
L 2900 3500 
L 3475 3500 
L 3475 806 
Q 3475 619 3529 530 
Q 3584 441 3700 441 
Q 3728 441 3778 458 
Q 3828 475 3916 513 
L 3916 50 
Q 3788 -22 3673 -56 
Q 3559 -91 3450 -91 
Q 3234 -91 3106 31 
Q 2978 153 2931 403 
Q 2775 156 2548 32 
Q 2322 -91 2016 -91 
Q 1697 -91 1473 31 
Q 1250 153 1119 397 
L 1119 -1331 
L 544 -1331 
z
" transform="scale(0.015625)"/>
       <path id="DejaVuSans-3b2" d="M 1178 216 
L 1178 -1331 
L 600 -1331 
L 600 3478 
Q 600 4903 1931 4903 
Q 3288 4903 3288 3700 
Q 3288 2844 2750 2531 
Q 3625 2250 3625 1416 
Q 3625 -66 2119 -66 
Q 1456 -66 1178 216 
z
M 1178 966 
Q 1525 425 2141 425 
Q 3041 425 3041 1406 
Q 3041 2288 1591 2219 
L 1591 2750 
Q 2725 2750 2725 3750 
Q 2725 4434 1994 4434 
Q 1178 4434 1178 3459 
L 1178 966 
z
" transform="scale(0.015625)"/>
       <path id="DejaVuSans-3bf" d="M 1959 3097 
Q 1497 3097 1228 2736 
Q 959 2375 959 1747 
Q 959 1119 1226 758 
Q 1494 397 1959 397 
Q 2419 397 2687 759 
Q 2956 1122 2956 1747 
Q 2956 2369 2687 2733 
Q 2419 3097 1959 3097 
z
M 1959 3584 
Q 2709 3584 3137 3096 
Q 3566 2609 3566 1747 
Q 3566 888 3137 398 
Q 2709 -91 1959 -91 
Q 1206 -91 779 398 
Q 353 888 353 1747 
Q 353 2609 779 3096 
Q 1206 3584 1959 3584 
z
" transform="scale(0.015625)"/>
       <path id="DejaVuSans-3bb" d="M 1981 4316 
L 3597 0 
L 2988 0 
L 2006 2588 
L 800 0 
L 191 0 
L 1725 3356 
L 1494 3975 
Q 1347 4369 1013 4369 
L 713 4369 
L 713 4863 
L 1078 4856 
Q 1784 4847 1981 4316 
z
" transform="scale(0.015625)"/>
       <path id="DejaVuSans-28" d="M 1984 4856 
Q 1566 4138 1362 3434 
Q 1159 2731 1159 2009 
Q 1159 1288 1364 580 
Q 1569 -128 1984 -844 
L 1484 -844 
Q 1016 -109 783 600 
Q 550 1309 550 2009 
Q 550 2706 781 3412 
Q 1013 4119 1484 4856 
L 1984 4856 
z
" transform="scale(0.015625)"/>
       <path id="DejaVuSans-3ac" d="M 2644 1628 
L 2506 2350 
Q 2366 3091 1809 3091 
Q 1391 3091 1200 2747 
Q 959 2316 959 1747 
Q 959 1059 1194 731 
Q 1431 397 1809 397 
Q 2228 397 2453 1063 
L 2644 1628 
z
M 2966 2584 
L 3275 3500 
L 3788 3500 
L 3147 1603 
L 3272 919 
Q 3300 766 3409 638 
Q 3538 488 3638 488 
L 3913 488 
L 3913 0 
L 3569 0 
Q 3275 0 3013 263 
Q 2884 394 2831 669 
Q 2688 322 2394 50 
Q 2256 -78 1809 -78 
Q 1075 -78 719 397 
Q 353 888 353 1747 
Q 353 2666 750 3097 
Q 1191 3578 1809 3578 
Q 2781 3578 2966 2584 
z
M 2378 5119 
L 3000 5119 
L 1982 3944 
L 1503 3944 
L 2378 5119 
z
" transform="scale(0.015625)"/>
       <path id="DejaVuSans-2f" d="M 1625 4666 
L 2156 4666 
L 531 -594 
L 0 -594 
L 1625 4666 
z
" transform="scale(0.015625)"/>
       <path id="DejaVuSans-3c2" d="M 2125 -91 
Q 1284 -91 818 406 
Q 353 903 353 1747 
Q 353 2603 823 3093 
Q 1294 3584 2113 3584 
Q 2378 3584 2631 3529 
Q 2884 3475 3122 3366 
L 3122 2828 
Q 2878 2963 2633 3030 
Q 2388 3097 2138 3097 
Q 1578 3097 1268 2742 
Q 959 2388 959 1747 
Q 959 1106 1268 751 
Q 1578 397 2125 397 
Q 2534 397 2784 159 
Q 3047 -88 3047 -463 
Q 3047 -822 2816 -1072 
Q 2566 -1344 2056 -1344 
Q 2056 -1109 2056 -872 
Q 2272 -888 2403 -750 
Q 2503 -641 2503 -525 
Q 2503 -359 2403 -222 
Q 2306 -91 2125 -91 
z
" transform="scale(0.015625)"/>
       <path id="DejaVuSans-29" d="M 513 4856 
L 1013 4856 
Q 1481 4119 1714 3412 
Q 1947 2706 1947 2009 
Q 1947 1309 1714 600 
Q 1481 -109 1013 -844 
L 513 -844 
Q 928 -128 1133 580 
Q 1338 1288 1338 2009 
Q 1338 2731 1133 3434 
Q 928 4138 513 4856 
z
" transform="scale(0.015625)"/>
      </defs>
      <use xlink:href="#DejaVuSans-39c"/>
      <use xlink:href="#DejaVuSans-3ad" transform="translate(86.279297 0)"/>
      <use xlink:href="#DejaVuSans-3c3" transform="translate(140.332031 0)"/>
      <use xlink:href="#DejaVuSans-3b7" transform="translate(203.710938 0)"/>
      <use xlink:href="#DejaVuSans-20" transform="translate(267.089844 0)"/>
      <use xlink:href="#DejaVuSans-3b5" transform="translate(298.876953 0)"/>
      <use xlink:href="#DejaVuSans-3c4" transform="translate(352.929688 0)"/>
      <use xlink:href="#DejaVuSans-3ae" transform="translate(413.134766 0)"/>
      <use xlink:href="#DejaVuSans-3c3" transform="translate(476.513672 0)"/>
      <use xlink:href="#DejaVuSans-3b9" transform="translate(539.892578 0)"/>
      <use xlink:href="#DejaVuSans-3b1" transform="translate(573.730469 0)"/>
      <use xlink:href="#DejaVuSans-20" transform="translate(639.648438 0)"/>
      <use xlink:href="#DejaVuSans-3bc" transform="translate(671.435547 0)"/>
      <use xlink:href="#DejaVuSans-3b5" transform="translate(735.058594 0)"/>
      <use xlink:href="#DejaVuSans-3c4" transform="translate(789.111328 0)"/>
      <use xlink:href="#DejaVuSans-3b1" transform="translate(849.316406 0)"/>
      <use xlink:href="#DejaVuSans-3b2" transform="translate(915.234375 0)"/>
      <use xlink:href="#DejaVuSans-3bf" transform="translate(979.052734 0)"/>
      <use xlink:href="#DejaVuSans-3bb" transform="translate(1040.234375 0)"/>
      <use xlink:href="#DejaVuSans-3ae" transform="translate(1099.414062 0)"/>
      <use xlink:href="#DejaVuSans-20" transform="translate(1162.792969 0)"/>
      <use xlink:href="#DejaVuSans-28" transform="translate(1194.580078 0)"/>
      <use xlink:href="#DejaVuSans-3ac" transform="translate(1233.59375 0)"/>
      <use xlink:href="#DejaVuSans-3c4" transform="translate(1299.511719 0)"/>
      <use xlink:href="#DejaVuSans-3bf" transform="translate(1359.716797 0)"/>
      <use xlink:href="#DejaVuSans-3bc" transform="translate(1420.898438 0)"/>
      <use xlink:href="#DejaVuSans-3b1" transform="translate(1484.521484 0)"/>
      <use xlink:href="#DejaVuSans-20" transform="translate(1550.439453 0)"/>
      <use xlink:href="#DejaVuSans-2f" transform="translate(1582.226562 0)"/>
      <use xlink:href="#DejaVuSans-20" transform="translate(1615.917969 0)"/>
      <use xlink:href="#DejaVuSans-3ad" transform="translate(1647.705078 0)"/>
      <use xlink:href="#DejaVuSans-3c4" transform="translate(1701.757812 0)"/>
      <use xlink:href="#DejaVuSans-3bf" transform="translate(1761.962891 0)"/>
      <use xlink:href="#DejaVuSans-3c2" transform="translate(1823.144531 0)"/>
      <use xlink:href="#DejaVuSans-29" transform="translate(1881.835938 0)"/>
     </g>
    </g>
   </g>
   <g id="matplotlib.axis_2">
    <g id="ytick_1">
     <g id="line2d_7">
      <defs>
       <path id="m80bc19b7a2" d="M 0 0 
L -3.5 0 
" style="stroke: #000000; stroke-width: 0.8"/>
      </defs>
      <g>
       <use xlink:href="#m80bc19b7a2" x="185.2" y="365.203535" style="stroke: #000000; stroke-width: 0.8"/>
      </g>
     </g>
     <g id="text_8">
      <!-- Greenland -->
      <g transform="translate(126.329688 369.002754) scale(0.1 -0.1)">
       <defs>
        <path id="DejaVuSans-47" d="M 3809 666 
L 3809 1919 
L 2778 1919 
L 2778 2438 
L 4434 2438 
L 4434 434 
Q 4069 175 3628 42 
Q 3188 -91 2688 -91 
Q 1594 -91 976 548 
Q 359 1188 359 2328 
Q 359 3472 976 4111 
Q 1594 4750 2688 4750 
Q 3144 4750 3555 4637 
Q 3966 4525 4313 4306 
L 4313 3634 
Q 3963 3931 3569 4081 
Q 3175 4231 2741 4231 
Q 1884 4231 1454 3753 
Q 1025 3275 1025 2328 
Q 1025 1384 1454 906 
Q 1884 428 2741 428 
Q 3075 428 3337 486 
Q 3600 544 3809 666 
z
" transform="scale(0.015625)"/>
        <path id="DejaVuSans-72" d="M 2631 2963 
Q 2534 3019 2420 3045 
Q 2306 3072 2169 3072 
Q 1681 3072 1420 2755 
Q 1159 2438 1159 1844 
L 1159 0 
L 581 0 
L 581 3500 
L 1159 3500 
L 1159 2956 
Q 1341 3275 1631 3429 
Q 1922 3584 2338 3584 
Q 2397 3584 2469 3576 
Q 2541 3569 2628 3553 
L 2631 2963 
z
" transform="scale(0.015625)"/>
        <path id="DejaVuSans-65" d="M 3597 1894 
L 3597 1613 
L 953 1613 
Q 991 1019 1311 708 
Q 1631 397 2203 397 
Q 2534 397 2845 478 
Q 3156 559 3463 722 
L 3463 178 
Q 3153 47 2828 -22 
Q 2503 -91 2169 -91 
Q 1331 -91 842 396 
Q 353 884 353 1716 
Q 353 2575 817 3079 
Q 1281 3584 2069 3584 
Q 2775 3584 3186 3129 
Q 3597 2675 3597 1894 
z
M 3022 2063 
Q 3016 2534 2758 2815 
Q 2500 3097 2075 3097 
Q 1594 3097 1305 2825 
Q 1016 2553 972 2059 
L 3022 2063 
z
" transform="scale(0.015625)"/>
        <path id="DejaVuSans-6e" d="M 3513 2113 
L 3513 0 
L 2938 0 
L 2938 2094 
Q 2938 2591 2744 2837 
Q 2550 3084 2163 3084 
Q 1697 3084 1428 2787 
Q 1159 2491 1159 1978 
L 1159 0 
L 581 0 
L 581 3500 
L 1159 3500 
L 1159 2956 
Q 1366 3272 1645 3428 
Q 1925 3584 2291 3584 
Q 2894 3584 3203 3211 
Q 3513 2838 3513 2113 
z
" transform="scale(0.015625)"/>
        <path id="DejaVuSans-6c" d="M 603 4863 
L 1178 4863 
L 1178 0 
L 603 0 
L 603 4863 
z
" transform="scale(0.015625)"/>
        <path id="DejaVuSans-61" d="M 2194 1759 
Q 1497 1759 1228 1600 
Q 959 1441 959 1056 
Q 959 750 1161 570 
Q 1363 391 1709 391 
Q 2188 391 2477 730 
Q 2766 1069 2766 1631 
L 2766 1759 
L 2194 1759 
z
M 3341 1997 
L 3341 0 
L 2766 0 
L 2766 531 
Q 2569 213 2275 61 
Q 1981 -91 1556 -91 
Q 1019 -91 701 211 
Q 384 513 384 1019 
Q 384 1609 779 1909 
Q 1175 2209 1959 2209 
L 2766 2209 
L 2766 2266 
Q 2766 2663 2505 2880 
Q 2244 3097 1772 3097 
Q 1472 3097 1187 3025 
Q 903 2953 641 2809 
L 641 3341 
Q 956 3463 1253 3523 
Q 1550 3584 1831 3584 
Q 2591 3584 2966 3190 
Q 3341 2797 3341 1997 
z
" transform="scale(0.015625)"/>
        <path id="DejaVuSans-64" d="M 2906 2969 
L 2906 4863 
L 3481 4863 
L 3481 0 
L 2906 0 
L 2906 525 
Q 2725 213 2448 61 
Q 2172 -91 1784 -91 
Q 1150 -91 751 415 
Q 353 922 353 1747 
Q 353 2572 751 3078 
Q 1150 3584 1784 3584 
Q 2172 3584 2448 3432 
Q 2725 3281 2906 2969 
z
M 947 1747 
Q 947 1113 1208 752 
Q 1469 391 1925 391 
Q 2381 391 2643 752 
Q 2906 1113 2906 1747 
Q 2906 2381 2643 2742 
Q 2381 3103 1925 3103 
Q 1469 3103 1208 2742 
Q 947 2381 947 1747 
z
" transform="scale(0.015625)"/>
       </defs>
       <use xlink:href="#DejaVuSans-47"/>
       <use xlink:href="#DejaVuSans-72" transform="translate(77.490234 0)"/>
       <use xlink:href="#DejaVuSans-65" transform="translate(116.353516 0)"/>
       <use xlink:href="#DejaVuSans-65" transform="translate(177.876953 0)"/>
       <use xlink:href="#DejaVuSans-6e" transform="translate(239.400391 0)"/>
       <use xlink:href="#DejaVuSans-6c" transform="translate(302.779297 0)"/>
       <use xlink:href="#DejaVuSans-61" transform="translate(330.5625 0)"/>
       <use xlink:href="#DejaVuSans-6e" transform="translate(391.841797 0)"/>
       <use xlink:href="#DejaVuSans-64" transform="translate(455.220703 0)"/>
      </g>
     </g>
    </g>
    <g id="ytick_2">
     <g id="line2d_8">
      <g>
       <use xlink:href="#m80bc19b7a2" x="185.2" y="348.587374" style="stroke: #000000; stroke-width: 0.8"/>
      </g>
     </g>
     <g id="text_9">
      <!-- Solomon Islands -->
      <g transform="translate(96.5 352.386592) scale(0.1 -0.1)">
       <defs>
        <path id="DejaVuSans-53" d="M 3425 4513 
L 3425 3897 
Q 3066 4069 2747 4153 
Q 2428 4238 2131 4238 
Q 1616 4238 1336 4038 
Q 1056 3838 1056 3469 
Q 1056 3159 1242 3001 
Q 1428 2844 1947 2747 
L 2328 2669 
Q 3034 2534 3370 2195 
Q 3706 1856 3706 1288 
Q 3706 609 3251 259 
Q 2797 -91 1919 -91 
Q 1588 -91 1214 -16 
Q 841 59 441 206 
L 441 856 
Q 825 641 1194 531 
Q 1563 422 1919 422 
Q 2459 422 2753 634 
Q 3047 847 3047 1241 
Q 3047 1584 2836 1778 
Q 2625 1972 2144 2069 
L 1759 2144 
Q 1053 2284 737 2584 
Q 422 2884 422 3419 
Q 422 4038 858 4394 
Q 1294 4750 2059 4750 
Q 2388 4750 2728 4690 
Q 3069 4631 3425 4513 
z
" transform="scale(0.015625)"/>
        <path id="DejaVuSans-6f" d="M 1959 3097 
Q 1497 3097 1228 2736 
Q 959 2375 959 1747 
Q 959 1119 1226 758 
Q 1494 397 1959 397 
Q 2419 397 2687 759 
Q 2956 1122 2956 1747 
Q 2956 2369 2687 2733 
Q 2419 3097 1959 3097 
z
M 1959 3584 
Q 2709 3584 3137 3096 
Q 3566 2609 3566 1747 
Q 3566 888 3137 398 
Q 2709 -91 1959 -91 
Q 1206 -91 779 398 
Q 353 888 353 1747 
Q 353 2609 779 3096 
Q 1206 3584 1959 3584 
z
" transform="scale(0.015625)"/>
        <path id="DejaVuSans-6d" d="M 3328 2828 
Q 3544 3216 3844 3400 
Q 4144 3584 4550 3584 
Q 5097 3584 5394 3201 
Q 5691 2819 5691 2113 
L 5691 0 
L 5113 0 
L 5113 2094 
Q 5113 2597 4934 2840 
Q 4756 3084 4391 3084 
Q 3944 3084 3684 2787 
Q 3425 2491 3425 1978 
L 3425 0 
L 2847 0 
L 2847 2094 
Q 2847 2600 2669 2842 
Q 2491 3084 2119 3084 
Q 1678 3084 1418 2786 
Q 1159 2488 1159 1978 
L 1159 0 
L 581 0 
L 581 3500 
L 1159 3500 
L 1159 2956 
Q 1356 3278 1631 3431 
Q 1906 3584 2284 3584 
Q 2666 3584 2933 3390 
Q 3200 3197 3328 2828 
z
" transform="scale(0.015625)"/>
        <path id="DejaVuSans-49" d="M 628 4666 
L 1259 4666 
L 1259 0 
L 628 0 
L 628 4666 
z
" transform="scale(0.015625)"/>
        <path id="DejaVuSans-73" d="M 2834 3397 
L 2834 2853 
Q 2591 2978 2328 3040 
Q 2066 3103 1784 3103 
Q 1356 3103 1142 2972 
Q 928 2841 928 2578 
Q 928 2378 1081 2264 
Q 1234 2150 1697 2047 
L 1894 2003 
Q 2506 1872 2764 1633 
Q 3022 1394 3022 966 
Q 3022 478 2636 193 
Q 2250 -91 1575 -91 
Q 1294 -91 989 -36 
Q 684 19 347 128 
L 347 722 
Q 666 556 975 473 
Q 1284 391 1588 391 
Q 1994 391 2212 530 
Q 2431 669 2431 922 
Q 2431 1156 2273 1281 
Q 2116 1406 1581 1522 
L 1381 1569 
Q 847 1681 609 1914 
Q 372 2147 372 2553 
Q 372 3047 722 3315 
Q 1072 3584 1716 3584 
Q 2034 3584 2315 3537 
Q 2597 3491 2834 3397 
z
" transform="scale(0.015625)"/>
       </defs>
       <use xlink:href="#DejaVuSans-53"/>
       <use xlink:href="#DejaVuSans-6f" transform="translate(63.476562 0)"/>
       <use xlink:href="#DejaVuSans-6c" transform="translate(124.658203 0)"/>
       <use xlink:href="#DejaVuSans-6f" transform="translate(152.441406 0)"/>
       <use xlink:href="#DejaVuSans-6d" transform="translate(213.623047 0)"/>
       <use xlink:href="#DejaVuSans-6f" transform="translate(311.035156 0)"/>
       <use xlink:href="#DejaVuSans-6e" transform="translate(372.216797 0)"/>
       <use xlink:href="#DejaVuSans-20" transform="translate(435.595703 0)"/>
       <use xlink:href="#DejaVuSans-49" transform="translate(467.382812 0)"/>
       <use xlink:href="#DejaVuSans-73" transform="translate(496.875 0)"/>
       <use xlink:href="#DejaVuSans-6c" transform="translate(548.974609 0)"/>
       <use xlink:href="#DejaVuSans-61" transform="translate(576.757812 0)"/>
       <use xlink:href="#DejaVuSans-6e" transform="translate(638.037109 0)"/>
       <use xlink:href="#DejaVuSans-64" transform="translate(701.416016 0)"/>
       <use xlink:href="#DejaVuSans-73" transform="translate(764.892578 0)"/>
      </g>
     </g>
    </g>
    <g id="ytick_3">
     <g id="line2d_9">
      <g>
       <use xlink:href="#m80bc19b7a2" x="185.2" y="331.971212" style="stroke: #000000; stroke-width: 0.8"/>
      </g>
     </g>
     <g id="text_10">
      <!-- Comoros -->
      <g transform="translate(134.025 335.770431) scale(0.1 -0.1)">
       <defs>
        <path id="DejaVuSans-43" d="M 4122 4306 
L 4122 3641 
Q 3803 3938 3442 4084 
Q 3081 4231 2675 4231 
Q 1875 4231 1450 3742 
Q 1025 3253 1025 2328 
Q 1025 1406 1450 917 
Q 1875 428 2675 428 
Q 3081 428 3442 575 
Q 3803 722 4122 1019 
L 4122 359 
Q 3791 134 3420 21 
Q 3050 -91 2638 -91 
Q 1578 -91 968 557 
Q 359 1206 359 2328 
Q 359 3453 968 4101 
Q 1578 4750 2638 4750 
Q 3056 4750 3426 4639 
Q 3797 4528 4122 4306 
z
" transform="scale(0.015625)"/>
       </defs>
       <use xlink:href="#DejaVuSans-43"/>
       <use xlink:href="#DejaVuSans-6f" transform="translate(69.824219 0)"/>
       <use xlink:href="#DejaVuSans-6d" transform="translate(131.005859 0)"/>
       <use xlink:href="#DejaVuSans-6f" transform="translate(228.417969 0)"/>
       <use xlink:href="#DejaVuSans-72" transform="translate(289.599609 0)"/>
       <use xlink:href="#DejaVuSans-6f" transform="translate(328.462891 0)"/>
       <use xlink:href="#DejaVuSans-73" transform="translate(389.644531 0)"/>
      </g>
     </g>
    </g>
    <g id="ytick_4">
     <g id="line2d_10">
      <g>
       <use xlink:href="#m80bc19b7a2" x="185.2" y="315.355051" style="stroke: #000000; stroke-width: 0.8"/>
      </g>
     </g>
     <g id="text_11">
      <!-- Timor-Leste -->
      <g transform="translate(119.853125 319.154269) scale(0.1 -0.1)">
       <defs>
        <path id="DejaVuSans-54" d="M -19 4666 
L 3928 4666 
L 3928 4134 
L 2272 4134 
L 2272 0 
L 1638 0 
L 1638 4134 
L -19 4134 
L -19 4666 
z
" transform="scale(0.015625)"/>
        <path id="DejaVuSans-69" d="M 603 3500 
L 1178 3500 
L 1178 0 
L 603 0 
L 603 3500 
z
M 603 4863 
L 1178 4863 
L 1178 4134 
L 603 4134 
L 603 4863 
z
" transform="scale(0.015625)"/>
        <path id="DejaVuSans-2d" d="M 313 2009 
L 1997 2009 
L 1997 1497 
L 313 1497 
L 313 2009 
z
" transform="scale(0.015625)"/>
        <path id="DejaVuSans-4c" d="M 628 4666 
L 1259 4666 
L 1259 531 
L 3531 531 
L 3531 0 
L 628 0 
L 628 4666 
z
" transform="scale(0.015625)"/>
        <path id="DejaVuSans-74" d="M 1172 4494 
L 1172 3500 
L 2356 3500 
L 2356 3053 
L 1172 3053 
L 1172 1153 
Q 1172 725 1289 603 
Q 1406 481 1766 481 
L 2356 481 
L 2356 0 
L 1766 0 
Q 1100 0 847 248 
Q 594 497 594 1153 
L 594 3053 
L 172 3053 
L 172 3500 
L 594 3500 
L 594 4494 
L 1172 4494 
z
" transform="scale(0.015625)"/>
       </defs>
       <use xlink:href="#DejaVuSans-54"/>
       <use xlink:href="#DejaVuSans-69" transform="translate(57.958984 0)"/>
       <use xlink:href="#DejaVuSans-6d" transform="translate(85.742188 0)"/>
       <use xlink:href="#DejaVuSans-6f" transform="translate(183.154297 0)"/>
       <use xlink:href="#DejaVuSans-72" transform="translate(244.335938 0)"/>
       <use xlink:href="#DejaVuSans-2d" transform="translate(279.074219 0)"/>
       <use xlink:href="#DejaVuSans-4c" transform="translate(315.158203 0)"/>
       <use xlink:href="#DejaVuSans-65" transform="translate(369.121094 0)"/>
       <use xlink:href="#DejaVuSans-73" transform="translate(430.644531 0)"/>
       <use xlink:href="#DejaVuSans-74" transform="translate(482.744141 0)"/>
       <use xlink:href="#DejaVuSans-65" transform="translate(521.953125 0)"/>
      </g>
     </g>
    </g>
    <g id="ytick_5">
     <g id="line2d_11">
      <g>
       <use xlink:href="#m80bc19b7a2" x="185.2" y="298.738889" style="stroke: #000000; stroke-width: 0.8"/>
      </g>
     </g>
     <g id="text_12">
      <!-- Papua New Guinea -->
      <g transform="translate(84.026563 302.538108) scale(0.1 -0.1)">
       <defs>
        <path id="DejaVuSans-50" d="M 1259 4147 
L 1259 2394 
L 2053 2394 
Q 2494 2394 2734 2622 
Q 2975 2850 2975 3272 
Q 2975 3691 2734 3919 
Q 2494 4147 2053 4147 
L 1259 4147 
z
M 628 4666 
L 2053 4666 
Q 2838 4666 3239 4311 
Q 3641 3956 3641 3272 
Q 3641 2581 3239 2228 
Q 2838 1875 2053 1875 
L 1259 1875 
L 1259 0 
L 628 0 
L 628 4666 
z
" transform="scale(0.015625)"/>
        <path id="DejaVuSans-70" d="M 1159 525 
L 1159 -1331 
L 581 -1331 
L 581 3500 
L 1159 3500 
L 1159 2969 
Q 1341 3281 1617 3432 
Q 1894 3584 2278 3584 
Q 2916 3584 3314 3078 
Q 3713 2572 3713 1747 
Q 3713 922 3314 415 
Q 2916 -91 2278 -91 
Q 1894 -91 1617 61 
Q 1341 213 1159 525 
z
M 3116 1747 
Q 3116 2381 2855 2742 
Q 2594 3103 2138 3103 
Q 1681 3103 1420 2742 
Q 1159 2381 1159 1747 
Q 1159 1113 1420 752 
Q 1681 391 2138 391 
Q 2594 391 2855 752 
Q 3116 1113 3116 1747 
z
" transform="scale(0.015625)"/>
        <path id="DejaVuSans-75" d="M 544 1381 
L 544 3500 
L 1119 3500 
L 1119 1403 
Q 1119 906 1312 657 
Q 1506 409 1894 409 
Q 2359 409 2629 706 
Q 2900 1003 2900 1516 
L 2900 3500 
L 3475 3500 
L 3475 0 
L 2900 0 
L 2900 538 
Q 2691 219 2414 64 
Q 2138 -91 1772 -91 
Q 1169 -91 856 284 
Q 544 659 544 1381 
z
M 1991 3584 
L 1991 3584 
z
" transform="scale(0.015625)"/>
        <path id="DejaVuSans-4e" d="M 628 4666 
L 1478 4666 
L 3547 763 
L 3547 4666 
L 4159 4666 
L 4159 0 
L 3309 0 
L 1241 3903 
L 1241 0 
L 628 0 
L 628 4666 
z
" transform="scale(0.015625)"/>
        <path id="DejaVuSans-77" d="M 269 3500 
L 844 3500 
L 1563 769 
L 2278 3500 
L 2956 3500 
L 3675 769 
L 4391 3500 
L 4966 3500 
L 4050 0 
L 3372 0 
L 2619 2869 
L 1863 0 
L 1184 0 
L 269 3500 
z
" transform="scale(0.015625)"/>
       </defs>
       <use xlink:href="#DejaVuSans-50"/>
       <use xlink:href="#DejaVuSans-61" transform="translate(55.802734 0)"/>
       <use xlink:href="#DejaVuSans-70" transform="translate(117.082031 0)"/>
       <use xlink:href="#DejaVuSans-75" transform="translate(180.558594 0)"/>
       <use xlink:href="#DejaVuSans-61" transform="translate(243.9375 0)"/>
       <use xlink:href="#DejaVuSans-20" transform="translate(305.216797 0)"/>
       <use xlink:href="#DejaVuSans-4e" transform="translate(337.003906 0)"/>
       <use xlink:href="#DejaVuSans-65" transform="translate(411.808594 0)"/>
       <use xlink:href="#DejaVuSans-77" transform="translate(473.332031 0)"/>
       <use xlink:href="#DejaVuSans-20" transform="translate(555.119141 0)"/>
       <use xlink:href="#DejaVuSans-47" transform="translate(586.90625 0)"/>
       <use xlink:href="#DejaVuSans-75" transform="translate(664.396484 0)"/>
       <use xlink:href="#DejaVuSans-69" transform="translate(727.775391 0)"/>
       <use xlink:href="#DejaVuSans-6e" transform="translate(755.558594 0)"/>
       <use xlink:href="#DejaVuSans-65" transform="translate(818.9375 0)"/>
       <use xlink:href="#DejaVuSans-61" transform="translate(880.460938 0)"/>
      </g>
     </g>
    </g>
    <g id="ytick_6">
     <g id="line2d_12">
      <g>
       <use xlink:href="#m80bc19b7a2" x="185.2" y="282.122727" style="stroke: #000000; stroke-width: 0.8"/>
      </g>
     </g>
     <g id="text_13">
      <!-- Sri Lanka -->
      <g transform="translate(132.003125 285.921946) scale(0.1 -0.1)">
       <defs>
        <path id="DejaVuSans-6b" d="M 581 4863 
L 1159 4863 
L 1159 1991 
L 2875 3500 
L 3609 3500 
L 1753 1863 
L 3688 0 
L 2938 0 
L 1159 1709 
L 1159 0 
L 581 0 
L 581 4863 
z
" transform="scale(0.015625)"/>
       </defs>
       <use xlink:href="#DejaVuSans-53"/>
       <use xlink:href="#DejaVuSans-72" transform="translate(63.476562 0)"/>
       <use xlink:href="#DejaVuSans-69" transform="translate(104.589844 0)"/>
       <use xlink:href="#DejaVuSans-20" transform="translate(132.373047 0)"/>
       <use xlink:href="#DejaVuSans-4c" transform="translate(164.160156 0)"/>
       <use xlink:href="#DejaVuSans-61" transform="translate(219.873047 0)"/>
       <use xlink:href="#DejaVuSans-6e" transform="translate(281.152344 0)"/>
       <use xlink:href="#DejaVuSans-6b" transform="translate(344.53125 0)"/>
       <use xlink:href="#DejaVuSans-61" transform="translate(400.691406 0)"/>
      </g>
     </g>
    </g>
    <g id="ytick_7">
     <g id="line2d_13">
      <g>
       <use xlink:href="#m80bc19b7a2" x="185.2" y="265.506566" style="stroke: #000000; stroke-width: 0.8"/>
      </g>
     </g>
     <g id="text_14">
      <!-- Micronesia (Fed. States of) -->
      <g transform="translate(45.146875 269.305784) scale(0.1 -0.1)">
       <defs>
        <path id="DejaVuSans-4d" d="M 628 4666 
L 1569 4666 
L 2759 1491 
L 3956 4666 
L 4897 4666 
L 4897 0 
L 4281 0 
L 4281 4097 
L 3078 897 
L 2444 897 
L 1241 4097 
L 1241 0 
L 628 0 
L 628 4666 
z
" transform="scale(0.015625)"/>
        <path id="DejaVuSans-63" d="M 3122 3366 
L 3122 2828 
Q 2878 2963 2633 3030 
Q 2388 3097 2138 3097 
Q 1578 3097 1268 2742 
Q 959 2388 959 1747 
Q 959 1106 1268 751 
Q 1578 397 2138 397 
Q 2388 397 2633 464 
Q 2878 531 3122 666 
L 3122 134 
Q 2881 22 2623 -34 
Q 2366 -91 2075 -91 
Q 1284 -91 818 406 
Q 353 903 353 1747 
Q 353 2603 823 3093 
Q 1294 3584 2113 3584 
Q 2378 3584 2631 3529 
Q 2884 3475 3122 3366 
z
" transform="scale(0.015625)"/>
        <path id="DejaVuSans-46" d="M 628 4666 
L 3309 4666 
L 3309 4134 
L 1259 4134 
L 1259 2759 
L 3109 2759 
L 3109 2228 
L 1259 2228 
L 1259 0 
L 628 0 
L 628 4666 
z
" transform="scale(0.015625)"/>
        <path id="DejaVuSans-2e" d="M 684 794 
L 1344 794 
L 1344 0 
L 684 0 
L 684 794 
z
" transform="scale(0.015625)"/>
        <path id="DejaVuSans-66" d="M 2375 4863 
L 2375 4384 
L 1825 4384 
Q 1516 4384 1395 4259 
Q 1275 4134 1275 3809 
L 1275 3500 
L 2222 3500 
L 2222 3053 
L 1275 3053 
L 1275 0 
L 697 0 
L 697 3053 
L 147 3053 
L 147 3500 
L 697 3500 
L 697 3744 
Q 697 4328 969 4595 
Q 1241 4863 1831 4863 
L 2375 4863 
z
" transform="scale(0.015625)"/>
       </defs>
       <use xlink:href="#DejaVuSans-4d"/>
       <use xlink:href="#DejaVuSans-69" transform="translate(86.279297 0)"/>
       <use xlink:href="#DejaVuSans-63" transform="translate(114.0625 0)"/>
       <use xlink:href="#DejaVuSans-72" transform="translate(169.042969 0)"/>
       <use xlink:href="#DejaVuSans-6f" transform="translate(207.90625 0)"/>
       <use xlink:href="#DejaVuSans-6e" transform="translate(269.087891 0)"/>
       <use xlink:href="#DejaVuSans-65" transform="translate(332.466797 0)"/>
       <use xlink:href="#DejaVuSans-73" transform="translate(393.990234 0)"/>
       <use xlink:href="#DejaVuSans-69" transform="translate(446.089844 0)"/>
       <use xlink:href="#DejaVuSans-61" transform="translate(473.873047 0)"/>
       <use xlink:href="#DejaVuSans-20" transform="translate(535.152344 0)"/>
       <use xlink:href="#DejaVuSans-28" transform="translate(566.939453 0)"/>
       <use xlink:href="#DejaVuSans-46" transform="translate(605.953125 0)"/>
       <use xlink:href="#DejaVuSans-65" transform="translate(657.972656 0)"/>
       <use xlink:href="#DejaVuSans-64" transform="translate(719.496094 0)"/>
       <use xlink:href="#DejaVuSans-2e" transform="translate(782.972656 0)"/>
       <use xlink:href="#DejaVuSans-20" transform="translate(814.759766 0)"/>
       <use xlink:href="#DejaVuSans-53" transform="translate(846.546875 0)"/>
       <use xlink:href="#DejaVuSans-74" transform="translate(910.023438 0)"/>
       <use xlink:href="#DejaVuSans-61" transform="translate(949.232422 0)"/>
       <use xlink:href="#DejaVuSans-74" transform="translate(1010.511719 0)"/>
       <use xlink:href="#DejaVuSans-65" transform="translate(1049.720703 0)"/>
       <use xlink:href="#DejaVuSans-73" transform="translate(1111.244141 0)"/>
       <use xlink:href="#DejaVuSans-20" transform="translate(1163.34375 0)"/>
       <use xlink:href="#DejaVuSans-6f" transform="translate(1195.130859 0)"/>
       <use xlink:href="#DejaVuSans-66" transform="translate(1256.3125 0)"/>
       <use xlink:href="#DejaVuSans-29" transform="translate(1291.517578 0)"/>
      </g>
     </g>
    </g>
    <g id="ytick_8">
     <g id="line2d_14">
      <g>
       <use xlink:href="#m80bc19b7a2" x="185.2" y="248.890404" style="stroke: #000000; stroke-width: 0.8"/>
      </g>
     </g>
     <g id="text_15">
      <!-- Nauru -->
      <g transform="translate(147.804688 252.689623) scale(0.1 -0.1)">
       <use xlink:href="#DejaVuSans-4e"/>
       <use xlink:href="#DejaVuSans-61" transform="translate(74.804688 0)"/>
       <use xlink:href="#DejaVuSans-75" transform="translate(136.083984 0)"/>
       <use xlink:href="#DejaVuSans-72" transform="translate(199.462891 0)"/>
       <use xlink:href="#DejaVuSans-75" transform="translate(240.576172 0)"/>
      </g>
     </g>
    </g>
    <g id="ytick_9">
     <g id="line2d_15">
      <g>
       <use xlink:href="#m80bc19b7a2" x="185.2" y="232.274242" style="stroke: #000000; stroke-width: 0.8"/>
      </g>
     </g>
     <g id="text_16">
      <!-- Samoa -->
      <g transform="translate(143.735938 236.073461) scale(0.1 -0.1)">
       <use xlink:href="#DejaVuSans-53"/>
       <use xlink:href="#DejaVuSans-61" transform="translate(63.476562 0)"/>
       <use xlink:href="#DejaVuSans-6d" transform="translate(124.755859 0)"/>
       <use xlink:href="#DejaVuSans-6f" transform="translate(222.167969 0)"/>
       <use xlink:href="#DejaVuSans-61" transform="translate(283.349609 0)"/>
      </g>
     </g>
    </g>
    <g id="ytick_10">
     <g id="line2d_16">
      <g>
       <use xlink:href="#m80bc19b7a2" x="185.2" y="215.658081" style="stroke: #000000; stroke-width: 0.8"/>
      </g>
     </g>
     <g id="text_17">
      <!-- Montserrat -->
      <g transform="translate(123.7375 219.4573) scale(0.1 -0.1)">
       <use xlink:href="#DejaVuSans-4d"/>
       <use xlink:href="#DejaVuSans-6f" transform="translate(86.279297 0)"/>
       <use xlink:href="#DejaVuSans-6e" transform="translate(147.460938 0)"/>
       <use xlink:href="#DejaVuSans-74" transform="translate(210.839844 0)"/>
       <use xlink:href="#DejaVuSans-73" transform="translate(250.048828 0)"/>
       <use xlink:href="#DejaVuSans-65" transform="translate(302.148438 0)"/>
       <use xlink:href="#DejaVuSans-72" transform="translate(363.671875 0)"/>
       <use xlink:href="#DejaVuSans-72" transform="translate(403.035156 0)"/>
       <use xlink:href="#DejaVuSans-61" transform="translate(444.148438 0)"/>
       <use xlink:href="#DejaVuSans-74" transform="translate(505.427734 0)"/>
      </g>
     </g>
    </g>
    <g id="ytick_11">
     <g id="line2d_17">
      <g>
       <use xlink:href="#m80bc19b7a2" x="185.2" y="199.041919" style="stroke: #000000; stroke-width: 0.8"/>
      </g>
     </g>
     <g id="text_18">
      <!-- Saint Pierre and Miquelon -->
      <g transform="translate(50.148438 202.841138) scale(0.1 -0.1)">
       <defs>
        <path id="DejaVuSans-71" d="M 947 1747 
Q 947 1113 1208 752 
Q 1469 391 1925 391 
Q 2381 391 2643 752 
Q 2906 1113 2906 1747 
Q 2906 2381 2643 2742 
Q 2381 3103 1925 3103 
Q 1469 3103 1208 2742 
Q 947 2381 947 1747 
z
M 2906 525 
Q 2725 213 2448 61 
Q 2172 -91 1784 -91 
Q 1150 -91 751 415 
Q 353 922 353 1747 
Q 353 2572 751 3078 
Q 1150 3584 1784 3584 
Q 2172 3584 2448 3432 
Q 2725 3281 2906 2969 
L 2906 3500 
L 3481 3500 
L 3481 -1331 
L 2906 -1331 
L 2906 525 
z
" transform="scale(0.015625)"/>
       </defs>
       <use xlink:href="#DejaVuSans-53"/>
       <use xlink:href="#DejaVuSans-61" transform="translate(63.476562 0)"/>
       <use xlink:href="#DejaVuSans-69" transform="translate(124.755859 0)"/>
       <use xlink:href="#DejaVuSans-6e" transform="translate(152.539062 0)"/>
       <use xlink:href="#DejaVuSans-74" transform="translate(215.917969 0)"/>
       <use xlink:href="#DejaVuSans-20" transform="translate(255.126953 0)"/>
       <use xlink:href="#DejaVuSans-50" transform="translate(286.914062 0)"/>
       <use xlink:href="#DejaVuSans-69" transform="translate(344.966797 0)"/>
       <use xlink:href="#DejaVuSans-65" transform="translate(372.75 0)"/>
       <use xlink:href="#DejaVuSans-72" transform="translate(434.273438 0)"/>
       <use xlink:href="#DejaVuSans-72" transform="translate(473.636719 0)"/>
       <use xlink:href="#DejaVuSans-65" transform="translate(512.5 0)"/>
       <use xlink:href="#DejaVuSans-20" transform="translate(574.023438 0)"/>
       <use xlink:href="#DejaVuSans-61" transform="translate(605.810547 0)"/>
       <use xlink:href="#DejaVuSans-6e" transform="translate(667.089844 0)"/>
       <use xlink:href="#DejaVuSans-64" transform="translate(730.46875 0)"/>
       <use xlink:href="#DejaVuSans-20" transform="translate(793.945312 0)"/>
       <use xlink:href="#DejaVuSans-4d" transform="translate(825.732422 0)"/>
       <use xlink:href="#DejaVuSans-69" transform="translate(912.011719 0)"/>
       <use xlink:href="#DejaVuSans-71" transform="translate(939.794922 0)"/>
       <use xlink:href="#DejaVuSans-75" transform="translate(1003.271484 0)"/>
       <use xlink:href="#DejaVuSans-65" transform="translate(1066.650391 0)"/>
       <use xlink:href="#DejaVuSans-6c" transform="translate(1128.173828 0)"/>
       <use xlink:href="#DejaVuSans-6f" transform="translate(1155.957031 0)"/>
       <use xlink:href="#DejaVuSans-6e" transform="translate(1217.138672 0)"/>
      </g>
     </g>
    </g>
    <g id="ytick_12">
     <g id="line2d_18">
      <g>
       <use xlink:href="#m80bc19b7a2" x="185.2" y="182.425758" style="stroke: #000000; stroke-width: 0.8"/>
      </g>
     </g>
     <g id="text_19">
      <!-- Holy See -->
      <g transform="translate(134.03125 186.224976) scale(0.1 -0.1)">
       <defs>
        <path id="DejaVuSans-48" d="M 628 4666 
L 1259 4666 
L 1259 2753 
L 3553 2753 
L 3553 4666 
L 4184 4666 
L 4184 0 
L 3553 0 
L 3553 2222 
L 1259 2222 
L 1259 0 
L 628 0 
L 628 4666 
z
" transform="scale(0.015625)"/>
        <path id="DejaVuSans-79" d="M 2059 -325 
Q 1816 -950 1584 -1140 
Q 1353 -1331 966 -1331 
L 506 -1331 
L 506 -850 
L 844 -850 
Q 1081 -850 1212 -737 
Q 1344 -625 1503 -206 
L 1606 56 
L 191 3500 
L 800 3500 
L 1894 763 
L 2988 3500 
L 3597 3500 
L 2059 -325 
z
" transform="scale(0.015625)"/>
       </defs>
       <use xlink:href="#DejaVuSans-48"/>
       <use xlink:href="#DejaVuSans-6f" transform="translate(75.195312 0)"/>
       <use xlink:href="#DejaVuSans-6c" transform="translate(136.376953 0)"/>
       <use xlink:href="#DejaVuSans-79" transform="translate(164.160156 0)"/>
       <use xlink:href="#DejaVuSans-20" transform="translate(223.339844 0)"/>
       <use xlink:href="#DejaVuSans-53" transform="translate(255.126953 0)"/>
       <use xlink:href="#DejaVuSans-65" transform="translate(318.603516 0)"/>
       <use xlink:href="#DejaVuSans-65" transform="translate(380.126953 0)"/>
      </g>
     </g>
    </g>
    <g id="ytick_13">
     <g id="line2d_19">
      <g>
       <use xlink:href="#m80bc19b7a2" x="185.2" y="165.809596" style="stroke: #000000; stroke-width: 0.8"/>
      </g>
     </g>
     <g id="text_20">
      <!-- Tuvalu -->
      <g transform="translate(146.104688 169.608815) scale(0.1 -0.1)">
       <defs>
        <path id="DejaVuSans-76" d="M 191 3500 
L 800 3500 
L 1894 563 
L 2988 3500 
L 3597 3500 
L 2284 0 
L 1503 0 
L 191 3500 
z
" transform="scale(0.015625)"/>
       </defs>
       <use xlink:href="#DejaVuSans-54"/>
       <use xlink:href="#DejaVuSans-75" transform="translate(45.958984 0)"/>
       <use xlink:href="#DejaVuSans-76" transform="translate(109.337891 0)"/>
       <use xlink:href="#DejaVuSans-61" transform="translate(168.517578 0)"/>
       <use xlink:href="#DejaVuSans-6c" transform="translate(229.796875 0)"/>
       <use xlink:href="#DejaVuSans-75" transform="translate(257.580078 0)"/>
      </g>
     </g>
    </g>
    <g id="ytick_14">
     <g id="line2d_20">
      <g>
       <use xlink:href="#m80bc19b7a2" x="185.2" y="149.193434" style="stroke: #000000; stroke-width: 0.8"/>
      </g>
     </g>
     <g id="text_21">
      <!-- Niue -->
      <g transform="translate(155.45 152.992653) scale(0.1 -0.1)">
       <use xlink:href="#DejaVuSans-4e"/>
       <use xlink:href="#DejaVuSans-69" transform="translate(74.804688 0)"/>
       <use xlink:href="#DejaVuSans-75" transform="translate(102.587891 0)"/>
       <use xlink:href="#DejaVuSans-65" transform="translate(165.966797 0)"/>
      </g>
     </g>
    </g>
    <g id="ytick_15">
     <g id="line2d_21">
      <g>
       <use xlink:href="#m80bc19b7a2" x="185.2" y="132.577273" style="stroke: #000000; stroke-width: 0.8"/>
      </g>
     </g>
     <g id="text_22">
      <!-- Saint Helena -->
      <g transform="translate(114.439063 136.376491) scale(0.1 -0.1)">
       <use xlink:href="#DejaVuSans-53"/>
       <use xlink:href="#DejaVuSans-61" transform="translate(63.476562 0)"/>
       <use xlink:href="#DejaVuSans-69" transform="translate(124.755859 0)"/>
       <use xlink:href="#DejaVuSans-6e" transform="translate(152.539062 0)"/>
       <use xlink:href="#DejaVuSans-74" transform="translate(215.917969 0)"/>
       <use xlink:href="#DejaVuSans-20" transform="translate(255.126953 0)"/>
       <use xlink:href="#DejaVuSans-48" transform="translate(286.914062 0)"/>
       <use xlink:href="#DejaVuSans-65" transform="translate(362.109375 0)"/>
       <use xlink:href="#DejaVuSans-6c" transform="translate(423.632812 0)"/>
       <use xlink:href="#DejaVuSans-65" transform="translate(451.416016 0)"/>
       <use xlink:href="#DejaVuSans-6e" transform="translate(512.939453 0)"/>
       <use xlink:href="#DejaVuSans-61" transform="translate(576.318359 0)"/>
      </g>
     </g>
    </g>
    <g id="ytick_16">
     <g id="line2d_22">
      <g>
       <use xlink:href="#m80bc19b7a2" x="185.2" y="115.961111" style="stroke: #000000; stroke-width: 0.8"/>
      </g>
     </g>
     <g id="text_23">
      <!-- Wallis and Futuna Islands -->
      <g transform="translate(51.70625 119.76033) scale(0.1 -0.1)">
       <defs>
        <path id="DejaVuSans-57" d="M 213 4666 
L 850 4666 
L 1831 722 
L 2809 4666 
L 3519 4666 
L 4500 722 
L 5478 4666 
L 6119 4666 
L 4947 0 
L 4153 0 
L 3169 4050 
L 2175 0 
L 1381 0 
L 213 4666 
z
" transform="scale(0.015625)"/>
       </defs>
       <use xlink:href="#DejaVuSans-57"/>
       <use xlink:href="#DejaVuSans-61" transform="translate(92.501953 0)"/>
       <use xlink:href="#DejaVuSans-6c" transform="translate(153.78125 0)"/>
       <use xlink:href="#DejaVuSans-6c" transform="translate(181.564453 0)"/>
       <use xlink:href="#DejaVuSans-69" transform="translate(209.347656 0)"/>
       <use xlink:href="#DejaVuSans-73" transform="translate(237.130859 0)"/>
       <use xlink:href="#DejaVuSans-20" transform="translate(289.230469 0)"/>
       <use xlink:href="#DejaVuSans-61" transform="translate(321.017578 0)"/>
       <use xlink:href="#DejaVuSans-6e" transform="translate(382.296875 0)"/>
       <use xlink:href="#DejaVuSans-64" transform="translate(445.675781 0)"/>
       <use xlink:href="#DejaVuSans-20" transform="translate(509.152344 0)"/>
       <use xlink:href="#DejaVuSans-46" transform="translate(540.939453 0)"/>
       <use xlink:href="#DejaVuSans-75" transform="translate(592.958984 0)"/>
       <use xlink:href="#DejaVuSans-74" transform="translate(656.337891 0)"/>
       <use xlink:href="#DejaVuSans-75" transform="translate(695.546875 0)"/>
       <use xlink:href="#DejaVuSans-6e" transform="translate(758.925781 0)"/>
       <use xlink:href="#DejaVuSans-61" transform="translate(822.304688 0)"/>
       <use xlink:href="#DejaVuSans-20" transform="translate(883.583984 0)"/>
       <use xlink:href="#DejaVuSans-49" transform="translate(915.371094 0)"/>
       <use xlink:href="#DejaVuSans-73" transform="translate(944.863281 0)"/>
       <use xlink:href="#DejaVuSans-6c" transform="translate(996.962891 0)"/>
       <use xlink:href="#DejaVuSans-61" transform="translate(1024.746094 0)"/>
       <use xlink:href="#DejaVuSans-6e" transform="translate(1086.025391 0)"/>
       <use xlink:href="#DejaVuSans-64" transform="translate(1149.404297 0)"/>
       <use xlink:href="#DejaVuSans-73" transform="translate(1212.880859 0)"/>
      </g>
     </g>
    </g>
    <g id="ytick_17">
     <g id="line2d_23">
      <g>
       <use xlink:href="#m80bc19b7a2" x="185.2" y="99.344949" style="stroke: #000000; stroke-width: 0.8"/>
      </g>
     </g>
     <g id="text_24">
      <!-- Central African Republic -->
      <g transform="translate(57.840625 103.144168) scale(0.1 -0.1)">
       <defs>
        <path id="DejaVuSans-41" d="M 2188 4044 
L 1331 1722 
L 3047 1722 
L 2188 4044 
z
M 1831 4666 
L 2547 4666 
L 4325 0 
L 3669 0 
L 3244 1197 
L 1141 1197 
L 716 0 
L 50 0 
L 1831 4666 
z
" transform="scale(0.015625)"/>
        <path id="DejaVuSans-52" d="M 2841 2188 
Q 3044 2119 3236 1894 
Q 3428 1669 3622 1275 
L 4263 0 
L 3584 0 
L 2988 1197 
Q 2756 1666 2539 1819 
Q 2322 1972 1947 1972 
L 1259 1972 
L 1259 0 
L 628 0 
L 628 4666 
L 2053 4666 
Q 2853 4666 3247 4331 
Q 3641 3997 3641 3322 
Q 3641 2881 3436 2590 
Q 3231 2300 2841 2188 
z
M 1259 4147 
L 1259 2491 
L 2053 2491 
Q 2509 2491 2742 2702 
Q 2975 2913 2975 3322 
Q 2975 3731 2742 3939 
Q 2509 4147 2053 4147 
L 1259 4147 
z
" transform="scale(0.015625)"/>
        <path id="DejaVuSans-62" d="M 3116 1747 
Q 3116 2381 2855 2742 
Q 2594 3103 2138 3103 
Q 1681 3103 1420 2742 
Q 1159 2381 1159 1747 
Q 1159 1113 1420 752 
Q 1681 391 2138 391 
Q 2594 391 2855 752 
Q 3116 1113 3116 1747 
z
M 1159 2969 
Q 1341 3281 1617 3432 
Q 1894 3584 2278 3584 
Q 2916 3584 3314 3078 
Q 3713 2572 3713 1747 
Q 3713 922 3314 415 
Q 2916 -91 2278 -91 
Q 1894 -91 1617 61 
Q 1341 213 1159 525 
L 1159 0 
L 581 0 
L 581 4863 
L 1159 4863 
L 1159 2969 
z
" transform="scale(0.015625)"/>
       </defs>
       <use xlink:href="#DejaVuSans-43"/>
       <use xlink:href="#DejaVuSans-65" transform="translate(69.824219 0)"/>
       <use xlink:href="#DejaVuSans-6e" transform="translate(131.347656 0)"/>
       <use xlink:href="#DejaVuSans-74" transform="translate(194.726562 0)"/>
       <use xlink:href="#DejaVuSans-72" transform="translate(233.935547 0)"/>
       <use xlink:href="#DejaVuSans-61" transform="translate(275.048828 0)"/>
       <use xlink:href="#DejaVuSans-6c" transform="translate(336.328125 0)"/>
       <use xlink:href="#DejaVuSans-20" transform="translate(364.111328 0)"/>
       <use xlink:href="#DejaVuSans-41" transform="translate(395.898438 0)"/>
       <use xlink:href="#DejaVuSans-66" transform="translate(460.681641 0)"/>
       <use xlink:href="#DejaVuSans-72" transform="translate(495.886719 0)"/>
       <use xlink:href="#DejaVuSans-69" transform="translate(537 0)"/>
       <use xlink:href="#DejaVuSans-63" transform="translate(564.783203 0)"/>
       <use xlink:href="#DejaVuSans-61" transform="translate(619.763672 0)"/>
       <use xlink:href="#DejaVuSans-6e" transform="translate(681.042969 0)"/>
       <use xlink:href="#DejaVuSans-20" transform="translate(744.421875 0)"/>
       <use xlink:href="#DejaVuSans-52" transform="translate(776.208984 0)"/>
       <use xlink:href="#DejaVuSans-65" transform="translate(841.191406 0)"/>
       <use xlink:href="#DejaVuSans-70" transform="translate(902.714844 0)"/>
       <use xlink:href="#DejaVuSans-75" transform="translate(966.191406 0)"/>
       <use xlink:href="#DejaVuSans-62" transform="translate(1029.570312 0)"/>
       <use xlink:href="#DejaVuSans-6c" transform="translate(1093.046875 0)"/>
       <use xlink:href="#DejaVuSans-69" transform="translate(1120.830078 0)"/>
       <use xlink:href="#DejaVuSans-63" transform="translate(1148.613281 0)"/>
      </g>
     </g>
    </g>
    <g id="ytick_18">
     <g id="line2d_24">
      <g>
       <use xlink:href="#m80bc19b7a2" x="185.2" y="82.728788" style="stroke: #000000; stroke-width: 0.8"/>
      </g>
     </g>
     <g id="text_25">
      <!-- Cambodia -->
      <g transform="translate(127.626563 86.528007) scale(0.1 -0.1)">
       <use xlink:href="#DejaVuSans-43"/>
       <use xlink:href="#DejaVuSans-61" transform="translate(69.824219 0)"/>
       <use xlink:href="#DejaVuSans-6d" transform="translate(131.103516 0)"/>
       <use xlink:href="#DejaVuSans-62" transform="translate(228.515625 0)"/>
       <use xlink:href="#DejaVuSans-6f" transform="translate(291.992188 0)"/>
       <use xlink:href="#DejaVuSans-64" transform="translate(353.173828 0)"/>
       <use xlink:href="#DejaVuSans-69" transform="translate(416.650391 0)"/>
       <use xlink:href="#DejaVuSans-61" transform="translate(444.433594 0)"/>
      </g>
     </g>
    </g>
    <g id="ytick_19">
     <g id="line2d_25">
      <g>
       <use xlink:href="#m80bc19b7a2" x="185.2" y="66.112626" style="stroke: #000000; stroke-width: 0.8"/>
      </g>
     </g>
     <g id="text_26">
      <!-- Tonga -->
      <g transform="translate(148.859375 69.911845) scale(0.1 -0.1)">
       <defs>
        <path id="DejaVuSans-67" d="M 2906 1791 
Q 2906 2416 2648 2759 
Q 2391 3103 1925 3103 
Q 1463 3103 1205 2759 
Q 947 2416 947 1791 
Q 947 1169 1205 825 
Q 1463 481 1925 481 
Q 2391 481 2648 825 
Q 2906 1169 2906 1791 
z
M 3481 434 
Q 3481 -459 3084 -895 
Q 2688 -1331 1869 -1331 
Q 1566 -1331 1297 -1286 
Q 1028 -1241 775 -1147 
L 775 -588 
Q 1028 -725 1275 -790 
Q 1522 -856 1778 -856 
Q 2344 -856 2625 -561 
Q 2906 -266 2906 331 
L 2906 616 
Q 2728 306 2450 153 
Q 2172 0 1784 0 
Q 1141 0 747 490 
Q 353 981 353 1791 
Q 353 2603 747 3093 
Q 1141 3584 1784 3584 
Q 2172 3584 2450 3431 
Q 2728 3278 2906 2969 
L 2906 3500 
L 3481 3500 
L 3481 434 
z
" transform="scale(0.015625)"/>
       </defs>
       <use xlink:href="#DejaVuSans-54"/>
       <use xlink:href="#DejaVuSans-6f" transform="translate(44.083984 0)"/>
       <use xlink:href="#DejaVuSans-6e" transform="translate(105.265625 0)"/>
       <use xlink:href="#DejaVuSans-67" transform="translate(168.644531 0)"/>
       <use xlink:href="#DejaVuSans-61" transform="translate(232.121094 0)"/>
      </g>
     </g>
    </g>
    <g id="ytick_20">
     <g id="line2d_26">
      <g>
       <use xlink:href="#m80bc19b7a2" x="185.2" y="49.496465" style="stroke: #000000; stroke-width: 0.8"/>
      </g>
     </g>
     <g id="text_27">
      <!-- Saint Vincent and the Grenadines -->
      <g transform="translate(10.029687 53.295683) scale(0.1 -0.1)">
       <defs>
        <path id="DejaVuSans-56" d="M 1831 0 
L 50 4666 
L 709 4666 
L 2188 738 
L 3669 4666 
L 4325 4666 
L 2547 0 
L 1831 0 
z
" transform="scale(0.015625)"/>
        <path id="DejaVuSans-68" d="M 3513 2113 
L 3513 0 
L 2938 0 
L 2938 2094 
Q 2938 2591 2744 2837 
Q 2550 3084 2163 3084 
Q 1697 3084 1428 2787 
Q 1159 2491 1159 1978 
L 1159 0 
L 581 0 
L 581 4863 
L 1159 4863 
L 1159 2956 
Q 1366 3272 1645 3428 
Q 1925 3584 2291 3584 
Q 2894 3584 3203 3211 
Q 3513 2838 3513 2113 
z
" transform="scale(0.015625)"/>
       </defs>
       <use xlink:href="#DejaVuSans-53"/>
       <use xlink:href="#DejaVuSans-61" transform="translate(63.476562 0)"/>
       <use xlink:href="#DejaVuSans-69" transform="translate(124.755859 0)"/>
       <use xlink:href="#DejaVuSans-6e" transform="translate(152.539062 0)"/>
       <use xlink:href="#DejaVuSans-74" transform="translate(215.917969 0)"/>
       <use xlink:href="#DejaVuSans-20" transform="translate(255.126953 0)"/>
       <use xlink:href="#DejaVuSans-56" transform="translate(286.914062 0)"/>
       <use xlink:href="#DejaVuSans-69" transform="translate(353.072266 0)"/>
       <use xlink:href="#DejaVuSans-6e" transform="translate(380.855469 0)"/>
       <use xlink:href="#DejaVuSans-63" transform="translate(444.234375 0)"/>
       <use xlink:href="#DejaVuSans-65" transform="translate(499.214844 0)"/>
       <use xlink:href="#DejaVuSans-6e" transform="translate(560.738281 0)"/>
       <use xlink:href="#DejaVuSans-74" transform="translate(624.117188 0)"/>
       <use xlink:href="#DejaVuSans-20" transform="translate(663.326172 0)"/>
       <use xlink:href="#DejaVuSans-61" transform="translate(695.113281 0)"/>
       <use xlink:href="#DejaVuSans-6e" transform="translate(756.392578 0)"/>
       <use xlink:href="#DejaVuSans-64" transform="translate(819.771484 0)"/>
       <use xlink:href="#DejaVuSans-20" transform="translate(883.248047 0)"/>
       <use xlink:href="#DejaVuSans-74" transform="translate(915.035156 0)"/>
       <use xlink:href="#DejaVuSans-68" transform="translate(954.244141 0)"/>
       <use xlink:href="#DejaVuSans-65" transform="translate(1017.623047 0)"/>
       <use xlink:href="#DejaVuSans-20" transform="translate(1079.146484 0)"/>
       <use xlink:href="#DejaVuSans-47" transform="translate(1110.933594 0)"/>
       <use xlink:href="#DejaVuSans-72" transform="translate(1188.423828 0)"/>
       <use xlink:href="#DejaVuSans-65" transform="translate(1227.287109 0)"/>
       <use xlink:href="#DejaVuSans-6e" transform="translate(1288.810547 0)"/>
       <use xlink:href="#DejaVuSans-61" transform="translate(1352.189453 0)"/>
       <use xlink:href="#DejaVuSans-64" transform="translate(1413.46875 0)"/>
       <use xlink:href="#DejaVuSans-69" transform="translate(1476.945312 0)"/>
       <use xlink:href="#DejaVuSans-6e" transform="translate(1504.728516 0)"/>
       <use xlink:href="#DejaVuSans-65" transform="translate(1568.107422 0)"/>
       <use xlink:href="#DejaVuSans-73" transform="translate(1629.630859 0)"/>
      </g>
     </g>
    </g>
   </g>
   <g id="line2d_27">
    <path d="M 466.625183 388.3 
L 466.625183 26.4 
" clip-path="url(#p88bc8a5369)" style="fill: none; stroke: #000000; stroke-width: 0.8; stroke-linecap: square"/>
   </g>
   <g id="patch_23">
    <path d="M 185.2 388.3 
L 185.2 26.4 
" style="fill: none; stroke: #000000; stroke-width: 0.8; stroke-linejoin: miter; stroke-linecap: square"/>
   </g>
   <g id="patch_24">
    <path d="M 565.2 388.3 
L 565.2 26.4 
" style="fill: none; stroke: #000000; stroke-width: 0.8; stroke-linejoin: miter; stroke-linecap: square"/>
   </g>
   <g id="patch_25">
    <path d="M 185.2 388.3 
L 565.2 388.3 
" style="fill: none; stroke: #000000; stroke-width: 0.8; stroke-linejoin: miter; stroke-linecap: square"/>
   </g>
   <g id="patch_26">
    <path d="M 185.2 26.4 
L 565.2 26.4 
" style="fill: none; stroke: #000000; stroke-width: 0.8; stroke-linejoin: miter; stroke-linecap: square"/>
   </g>
   <g id="text_28">
    <!-- Χώρες με σχεδόν μηδενική μακροχρόνια τάση -->
    <g transform="translate(236.192187 20.4) scale(0.12 -0.12)">
     <defs>
      <path id="DejaVuSans-3a7" d="M 403 4666 
L 1081 4666 
L 2241 2931 
L 3406 4666 
L 4084 4666 
L 2584 2425 
L 4184 0 
L 3506 0 
L 2194 1984 
L 872 0 
L 191 0 
L 1856 2491 
L 403 4666 
z
" transform="scale(0.015625)"/>
      <path id="DejaVuSans-3ce" d="M 1719 -91 
Q 422 -91 422 1766 
Q 422 2500 906 3500 
L 1525 3500 
Q 1078 2500 1078 1750 
Q 1078 397 1772 397 
Q 2406 397 2406 2078 
L 2938 2078 
Q 2938 397 3572 397 
Q 4266 397 4266 1750 
Q 4266 2500 3819 3500 
L 4438 3500 
Q 4922 2500 4922 1766 
Q 4922 -91 3625 -91 
Q 2775 -91 2672 844 
Q 2544 -91 1719 -91 
z
M 3114 5119 
L 3736 5119 
L 2718 3944 
L 2239 3944 
L 3114 5119 
z
" transform="scale(0.015625)"/>
      <path id="DejaVuSans-3c1" d="M 863 2875 
Q 1053 3194 1525 3475 
Q 1709 3584 2278 3584 
Q 2916 3584 3314 3078 
Q 3713 2572 3713 1747 
Q 3713 922 3314 415 
Q 2916 -91 2278 -91 
Q 1894 -91 1617 61 
Q 1341 213 1159 525 
L 1159 -1331 
L 581 -1331 
L 581 1716 
Q 581 2438 863 2875 
z
M 3116 1747 
Q 3116 2381 2855 2742 
Q 2594 3103 2138 3103 
Q 1681 3103 1420 2742 
Q 1159 2381 1159 1747 
Q 1159 1113 1420 752 
Q 1681 391 2138 391 
Q 2594 391 2855 752 
Q 3116 1113 3116 1747 
z
" transform="scale(0.015625)"/>
      <path id="DejaVuSans-3c7" d="M 2288 -781 
L 1822 416 
L 863 -1334 
L 184 -1334 
L 1541 1141 
L 972 2613 
Q 819 3006 338 3006 
L 184 3006 
L 184 3500 
L 403 3494 
Q 1209 3472 1413 2950 
L 1875 1753 
L 2834 3503 
L 3513 3503 
L 2156 1028 
L 2725 -444 
Q 2878 -838 3359 -838 
L 3513 -838 
L 3513 -1331 
L 3294 -1325 
Q 2488 -1303 2288 -781 
z
" transform="scale(0.015625)"/>
      <path id="DejaVuSans-3b4" d="M 3138 4053 
Q 2819 4272 2072 4272 
Q 1281 4272 1281 3906 
Q 1281 3619 2106 3469 
Q 2756 3353 3122 3003 
Q 3566 2581 3566 1716 
Q 3566 888 3138 400 
Q 2709 -91 1959 -91 
Q 1213 -91 781 400 
Q 353 888 353 1747 
Q 353 2384 781 2900 
Q 947 3100 1181 3213 
Q 694 3459 694 3900 
Q 694 4750 2072 4750 
Q 2763 4750 3138 4531 
L 3138 4053 
z
M 1613 3056 
Q 1400 2966 1228 2738 
Q 959 2384 959 1747 
Q 959 1113 1225 756 
Q 1494 397 1959 397 
Q 2419 397 2687 759 
Q 2956 1122 2956 1716 
Q 2956 2338 2672 2638 
Q 2369 2959 1975 2994 
Q 1775 3013 1613 3056 
z
" transform="scale(0.015625)"/>
      <path id="DejaVuSans-3cc" d="M 2426 5119 
L 3048 5119 
L 2030 3944 
L 1551 3944 
L 2426 5119 
z
M 1959 3097 
Q 1497 3097 1228 2736 
Q 959 2375 959 1747 
Q 959 1119 1226 758 
Q 1494 397 1959 397 
Q 2419 397 2687 759 
Q 2956 1122 2956 1747 
Q 2956 2369 2687 2733 
Q 2419 3097 1959 3097 
z
M 1959 3584 
Q 2709 3584 3137 3096 
Q 3566 2609 3566 1747 
Q 3566 888 3137 398 
Q 2709 -91 1959 -91 
Q 1206 -91 779 398 
Q 353 888 353 1747 
Q 353 2609 779 3096 
Q 1206 3584 1959 3584 
z
" transform="scale(0.015625)"/>
      <path id="DejaVuSans-3bd" d="M 1300 0 
L 231 3500 
L 850 3500 
L 1753 563 
Q 2128 950 2441 1488 
Q 2678 1891 2691 2241 
Q 2697 2406 2622 2719 
Q 2534 3091 2203 3500 
L 2784 3500 
L 2784 3500 
Q 3000 3222 3144 2834 
Q 3275 2478 3275 2234 
Q 3275 1622 2850 1075 
Q 2297 363 1913 0 
L 1300 0 
z
" transform="scale(0.015625)"/>
      <path id="DejaVuSans-3ba" d="M 597 3500 
L 1191 3500 
L 1191 2047 
L 2700 3500 
L 3400 3500 
L 2022 2181 
L 3616 0 
L 2913 0 
L 1619 1806 
L 1191 1403 
L 1191 0 
L 597 0 
L 597 3500 
z
" transform="scale(0.015625)"/>
     </defs>
     <use xlink:href="#DejaVuSans-3a7"/>
     <use xlink:href="#DejaVuSans-3ce" transform="translate(68.505859 0)"/>
     <use xlink:href="#DejaVuSans-3c1" transform="translate(152.246094 0)"/>
     <use xlink:href="#DejaVuSans-3b5" transform="translate(215.722656 0)"/>
     <use xlink:href="#DejaVuSans-3c2" transform="translate(269.775391 0)"/>
     <use xlink:href="#DejaVuSans-20" transform="translate(328.466797 0)"/>
     <use xlink:href="#DejaVuSans-3bc" transform="translate(360.253906 0)"/>
     <use xlink:href="#DejaVuSans-3b5" transform="translate(423.876953 0)"/>
     <use xlink:href="#DejaVuSans-20" transform="translate(477.929688 0)"/>
     <use xlink:href="#DejaVuSans-3c3" transform="translate(509.716797 0)"/>
     <use xlink:href="#DejaVuSans-3c7" transform="translate(573.095703 0)"/>
     <use xlink:href="#DejaVuSans-3b5" transform="translate(630.859375 0)"/>
     <use xlink:href="#DejaVuSans-3b4" transform="translate(684.912109 0)"/>
     <use xlink:href="#DejaVuSans-3cc" transform="translate(746.09375 0)"/>
     <use xlink:href="#DejaVuSans-3bd" transform="translate(807.275391 0)"/>
     <use xlink:href="#DejaVuSans-20" transform="translate(863.134766 0)"/>
     <use xlink:href="#DejaVuSans-3bc" transform="translate(894.921875 0)"/>
     <use xlink:href="#DejaVuSans-3b7" transform="translate(958.544922 0)"/>
     <use xlink:href="#DejaVuSans-3b4" transform="translate(1021.923828 0)"/>
     <use xlink:href="#DejaVuSans-3b5" transform="translate(1083.105469 0)"/>
     <use xlink:href="#DejaVuSans-3bd" transform="translate(1137.158203 0)"/>
     <use xlink:href="#DejaVuSans-3b9" transform="translate(1193.017578 0)"/>
     <use xlink:href="#DejaVuSans-3ba" transform="translate(1226.855469 0)"/>
     <use xlink:href="#DejaVuSans-3ae" transform="translate(1285.791016 0)"/>
     <use xlink:href="#DejaVuSans-20" transform="translate(1349.169922 0)"/>
     <use xlink:href="#DejaVuSans-3bc" transform="translate(1380.957031 0)"/>
     <use xlink:href="#DejaVuSans-3b1" transform="translate(1444.580078 0)"/>
     <use xlink:href="#DejaVuSans-3ba" transform="translate(1510.498047 0)"/>
     <use xlink:href="#DejaVuSans-3c1" transform="translate(1569.433594 0)"/>
     <use xlink:href="#DejaVuSans-3bf" transform="translate(1632.910156 0)"/>
     <use xlink:href="#DejaVuSans-3c7" transform="translate(1694.091797 0)"/>
     <use xlink:href="#DejaVuSans-3c1" transform="translate(1751.855469 0)"/>
     <use xlink:href="#DejaVuSans-3cc" transform="translate(1815.332031 0)"/>
     <use xlink:href="#DejaVuSans-3bd" transform="translate(1876.513672 0)"/>
     <use xlink:href="#DejaVuSans-3b9" transform="translate(1932.373047 0)"/>
     <use xlink:href="#DejaVuSans-3b1" transform="translate(1966.210938 0)"/>
     <use xlink:href="#DejaVuSans-20" transform="translate(2032.128906 0)"/>
     <use xlink:href="#DejaVuSans-3c4" transform="translate(2063.916016 0)"/>
     <use xlink:href="#DejaVuSans-3ac" transform="translate(2124.121094 0)"/>
     <use xlink:href="#DejaVuSans-3c3" transform="translate(2190.039062 0)"/>
     <use xlink:href="#DejaVuSans-3b7" transform="translate(2253.417969 0)"/>
    </g>
   </g>
  </g>
 </g>
 <defs>
  <clipPath id="p88bc8a5369">
   <rect x="185.2" y="26.4" width="380" height="361.9"/>
  </clipPath>
 </defs>
</svg>
